<svg xmlns="http://www.w3.org/2000/svg"  viewBox="0 0 64 64" width="128px" height="128px"><path fill="#f2d888" d="M30.63139,9.07346A11.868,11.868,0,0,0,20.059,19.44854a11.4062,11.4062,0,0,0,4.31708,10.12307A4.42282,4.42282,0,0,1,26,33.0484l0,5.09447A4.95777,4.95777,0,0,0,31.05263,43h1.89475A4.95778,4.95778,0,0,0,38,38.14286l0-5.09453a4.53383,4.53383,0,0,1,1.69-3.52975A11.4277,11.4277,0,0,0,44,20.61488,11.865,11.865,0,0,0,30.63139,9.07346Z"/><path fill="#6d8299" d="M38.50189,22.16742a5.97711,5.97711,0,0,0,0-2.33478l1.49774-.83642a7.92607,7.92607,0,0,0-2.20031-3.69806l-.86841.485a1.10229,1.10229,0,0,1-1.145-.02685,6.66389,6.66389,0,0,0-.9837-.54816,1.03307,1.03307,0,0,1-.59662-.94611v-.96814a8.36618,8.36618,0,0,0-4.41132.00391V14.262a1.03307,1.03307,0,0,1-.59662.94611,6.66021,6.66021,0,0,0-.98364.54816,1.1024,1.1024,0,0,1-1.145.02685l-.86413-.48254A7.92617,7.92617,0,0,0,24,18.99609l1.498.83655a5.9766,5.9766,0,0,0,0,2.33478l-1.49781.8363a7.92607,7.92607,0,0,0,2.20032,3.69806l.86853-.48492a1.10269,1.10269,0,0,1,1.145.02685,6.65957,6.65957,0,0,0,.98358.54816,1.033,1.033,0,0,1,.59662.946v.9682a8.36782,8.36782,0,0,0,4.41132-.00391v-.96429a1.033,1.033,0,0,1,.59662-.946,6.65874,6.65874,0,0,0,.9837-.54822,1.10271,1.10271,0,0,1,1.145-.02679l.86413.4826A7.92671,7.92671,0,0,0,40,23.00391ZM32,24.55554A3.55554,3.55554,0,1,1,35.55554,21,3.55553,3.55553,0,0,1,32,24.55554Z"/><circle cx="32" cy="21" r="4" fill="#f2f2f2"/><path fill="#6d8299" d="M26,35v3.14288A4.95778,4.95778,0,0,0,31.05261,43h1.89478A4.95779,4.95779,0,0,0,38,38.14282V35Z"/><path fill="#5b6d80" d="M26.0899,39a4.99371,4.99371,0,0,0,4.96271,4h1.89478a4.99382,4.99382,0,0,0,4.96271-4Z"/><rect width="1.5" height="4" x="31.25" y="2" fill="#ffe38f"/><rect width="4" height="1.5" x="47" y="20.25" fill="#ffe38f"/><rect width="4" height="1.5" x="13" y="20.25" fill="#ffe38f"/><rect width="1.5" height="4" x="19.229" y="6.98" fill="#ffe38f" transform="rotate(-45.005 19.98 8.98)"/><rect width="4" height="1.5" x="42.021" y="8.23" fill="#ffe38f" transform="rotate(-45 44.02 8.98)"/><path fill="#507ab3" d="M6,46h6a4,4,0,0,1,4,4V62a0,0,0,0,1,0,0H2a0,0,0,0,1,0,0V50A4,4,0,0,1,6,46Z"/><polygon fill="#d8e2f0" points="9 46 7 55 9 58 11 55 9 46"/><circle cx="9" cy="41.5" r="4.5" fill="#f2c791"/><path fill="#64768c" d="M9,40a8.58224,8.58224,0,0,1,4.47711,1.27325,4.482,4.482,0,0,0-8.95422,0A8.58224,8.58224,0,0,1,9,40Z"/><path fill="#507ab3" d="M52,46h6a4,4,0,0,1,4,4V62a0,0,0,0,1,0,0H48a0,0,0,0,1,0,0V50A4,4,0,0,1,52,46Z"/><polygon fill="#d8e2f0" points="55 46 53 55 55 58 57 55 55 46"/><circle cx="55" cy="41.5" r="4.5" fill="#f2c791"/><path fill="#64768c" d="M55,40a8.58224,8.58224,0,0,1,4.47711,1.27325,4.482,4.482,0,0,0-8.95422,0A8.58224,8.58224,0,0,1,55,40Z"/></svg>