<svg width="117" height="87" viewBox="0 0 117 87" fill="none" xmlns="http://www.w3.org/2000/svg">
<path d="M0.472286 40.308C2.90429 40.0547 4.75362 39.32 6.02029 38.104C7.33762 36.888 7.99629 35.292 7.99629 33.316C7.99629 31.492 7.79362 28.148 7.38829 23.284C6.93229 18.724 6.70429 15.076 6.70429 12.34C6.70429 8.74266 7.74295 5.93066 9.82029 3.904C11.9483 1.87733 14.735 0.863996 18.1803 0.863996H23.2723V8.388H19.9283C18.307 8.388 17.091 8.768 16.2803 9.528C15.5203 10.2373 15.1403 11.4027 15.1403 13.024C15.1403 14.24 15.2163 15.8613 15.3683 17.888C15.5203 19.9147 15.6216 21.3587 15.6723 22.22C16.1283 26.8813 16.3563 30.6813 16.3563 33.62C16.3563 36.204 15.6976 38.3573 14.3803 40.08C13.1136 41.8027 11.1376 42.9427 8.45229 43.5V43.652C11.1376 44.2093 13.1136 45.3493 14.3803 47.072C15.6976 48.7947 16.3563 50.948 16.3563 53.532C16.3563 56.4707 16.1283 60.2707 15.6723 64.932C15.6216 65.7933 15.5203 67.2373 15.3683 69.264C15.2163 71.2907 15.1403 72.912 15.1403 74.128C15.1403 75.7493 15.5203 76.9147 16.2803 77.624C17.091 78.384 18.307 78.764 19.9283 78.764H23.2723V86.288H18.1803C14.735 86.288 11.9483 85.2747 9.82029 83.248C7.74295 81.2213 6.70429 78.4093 6.70429 74.812C6.70429 72.076 6.93229 68.428 7.38829 63.868C7.79362 59.004 7.99629 55.66 7.99629 53.836C7.99629 51.86 7.33762 50.264 6.02029 49.048C4.75362 47.832 2.90429 47.0973 0.472286 46.844V40.308ZM39.4298 72.532C37.8591 72.532 36.5418 72 35.4778 70.936C34.4138 69.872 33.8818 68.5547 33.8818 66.984C33.8818 65.4133 34.4138 64.096 35.4778 63.032C36.5418 61.968 37.8591 61.436 39.4298 61.436C40.9498 61.436 42.2418 61.968 43.3058 63.032C44.3698 64.096 44.9018 65.4133 44.9018 66.984C44.9018 68.5547 44.3698 69.872 43.3058 70.936C42.2418 72 40.9498 72.532 39.4298 72.532ZM77.804 72.532C76.2333 72.532 74.916 72 73.852 70.936C72.788 69.872 72.256 68.5547 72.256 66.984C72.256 65.4133 72.788 64.096 73.852 63.032C74.916 61.968 76.2333 61.436 77.804 61.436C79.324 61.436 80.616 61.968 81.68 63.032C82.744 64.096 83.276 65.4133 83.276 66.984C83.276 68.5547 82.744 69.872 81.68 70.936C80.616 72 79.324 72.532 77.804 72.532ZM116.73 46.844C114.298 47.0973 112.423 47.832 111.106 49.048C109.839 50.264 109.206 51.86 109.206 53.836C109.206 55.66 109.409 59.004 109.814 63.868C110.27 68.428 110.498 72.076 110.498 74.812C110.498 78.4093 109.434 81.2213 107.306 83.248C105.229 85.2747 102.467 86.288 99.022 86.288H93.93V78.764H97.274C98.8954 78.764 100.086 78.384 100.846 77.624C101.657 76.9147 102.062 75.7493 102.062 74.128C102.062 72.912 101.986 71.2907 101.834 69.264C101.682 67.2373 101.581 65.7933 101.53 64.932C101.074 60.2707 100.846 56.4707 100.846 53.532C100.846 50.948 101.479 48.7947 102.746 47.072C104.063 45.3493 106.065 44.2093 108.75 43.652V43.5C106.065 42.9427 104.063 41.8027 102.746 40.08C101.479 38.3573 100.846 36.204 100.846 33.62C100.846 30.6813 101.074 26.8813 101.53 22.22C101.581 21.3587 101.682 19.9147 101.834 17.888C101.986 15.8613 102.062 14.24 102.062 13.024C102.062 11.4027 101.657 10.2373 100.846 9.528C100.086 8.768 98.8954 8.388 97.274 8.388H93.93V0.863996H99.022C102.467 0.863996 105.229 1.87733 107.306 3.904C109.434 5.93066 110.498 8.74266 110.498 12.34C110.498 15.076 110.27 18.724 109.814 23.284C109.409 28.148 109.206 31.492 109.206 33.316C109.206 35.292 109.839 36.888 111.106 38.104C112.423 39.32 114.298 40.0547 116.73 40.308V46.844Z" fill="#2685FB"/>
</svg>
